<svg width="25" height="14" viewBox="0 0 25 14" fill="none" xmlns="http://www.w3.org/2000/svg">
<path fill-rule="evenodd" clip-rule="evenodd" d="M0.771157 0.771756C0.856893 0.685304 0.958743 0.616713 1.07088 0.569913C1.18301 0.523113 1.30322 0.499023 1.42462 0.499023C1.54602 0.499023 1.66623 0.523113 1.77836 0.569913C1.89049 0.616713 1.99234 0.685304 2.07808 0.771756L12.5002 11.2564L22.9224 0.771756C23.0082 0.685443 23.1101 0.616976 23.2222 0.570264C23.3343 0.523552 23.4545 0.499509 23.5759 0.499509C23.6972 0.499509 23.8174 0.523552 23.9295 0.570264C24.0416 0.616976 24.1435 0.685443 24.2293 0.771756C24.3151 0.858069 24.3832 0.960537 24.4297 1.07331C24.4761 1.18608 24.5 1.30695 24.5 1.42902C24.5 1.55108 24.4761 1.67195 24.4297 1.78472C24.3832 1.8975 24.3151 1.99997 24.2293 2.08628L13.1537 13.2263C13.068 13.3127 12.9661 13.3813 12.854 13.4281C12.7419 13.4749 12.6216 13.499 12.5002 13.499C12.3788 13.499 12.2586 13.4749 12.1465 13.4281C12.0344 13.3813 11.9325 13.3127 11.8468 13.2263L0.771157 2.08628C0.685204 2.00004 0.61701 1.8976 0.57048 1.78482C0.523951 1.67203 0.5 1.55113 0.5 1.42902C0.5 1.30691 0.523951 1.186 0.57048 1.07322C0.61701 0.960433 0.685204 0.85799 0.771157 0.771756Z" fill="black"/>
</svg>
