<?xml version="1.0" standalone="no"?>
<!DOCTYPE svg PUBLIC "-//W3C//DTD SVG 20010904//EN"
 "http://www.w3.org/TR/2001/REC-SVG-20010904/DTD/svg10.dtd">
<svg version="1.0" xmlns="http://www.w3.org/2000/svg"
 width="260.000000pt" height="260.000000pt" viewBox="0 0 260.000000 260.000000"
 preserveAspectRatio="xMidYMid meet">
<metadata>
Created by potrace 1.11, written by Peter Selinger 2001-2013
</metadata>
<g transform="translate(0.000000,260.000000) scale(0.100000,-0.100000)"
fill="#000000" stroke="none">
<path d="M100 1407 l0 -393 28 -55 c31 -62 78 -99 164 -129 55 -19 83 -20 668
-20 l610 0 0 317 c0 174 3 313 7 309 4 -3 50 -145 103 -314 l96 -307 362 -3
362 -2 0 495 0 495 -195 0 -195 0 -2 -332 c-3 -273 -5 -327 -15 -298 -6 19
-55 169 -108 333 l-96 297 -505 0 -504 0 0 -400 0 -400 -95 0 -95 0 0 400 0
400 -295 0 -295 0 0 -393z"/>
</g>
</svg>
